<?xml version="1.0" encoding="UTF-8"?>
<svg id="Capa_2" data-name="Capa 2" xmlns="http://www.w3.org/2000/svg" viewBox="0 0 231.82 79.45">
  <defs>
    <style>
      .cls-1 {
        fill: #010033;
        stroke-width: 0px;
      }
    </style>
  </defs>
  <g id="Capa_1-2" data-name="Capa 1">
    <g>
      <g>
        <path class="cls-1" d="M0,25.53h8.43v53.08H0V25.53Z"/>
        <path class="cls-1" d="M20.64,64.71c.28,2.53,1.26,4.49,2.95,5.9s3.72,2.11,6.11,2.11c2.11,0,3.87-.43,5.3-1.3,1.43-.87,2.68-1.95,3.76-3.26l6.04,4.56c-1.97,2.43-4.17,4.17-6.6,5.2-2.43,1.03-4.99,1.54-7.65,1.54-2.53,0-4.92-.42-7.16-1.26-2.25-.84-4.19-2.04-5.83-3.58-1.64-1.54-2.94-3.41-3.9-5.58-.96-2.18-1.44-4.6-1.44-7.27s.48-5.09,1.44-7.27c.96-2.18,2.26-4.04,3.9-5.58,1.64-1.54,3.58-2.74,5.83-3.58,2.25-.84,4.63-1.26,7.16-1.26,2.34,0,4.48.41,6.42,1.23,1.94.82,3.6,2,4.99,3.55,1.38,1.54,2.46,3.45,3.23,5.72.77,2.27,1.16,4.88,1.16,7.83v2.32h-25.7ZM37.91,58.39c-.05-2.48-.82-4.43-2.32-5.86-1.5-1.43-3.58-2.14-6.25-2.14-2.53,0-4.53.73-6,2.18-1.47,1.45-2.38,3.39-2.7,5.83h17.27Z"/>
        <path class="cls-1" d="M49.99,44.91h8v5.41h.14c.8-1.69,2.01-3.15,3.65-4.39,1.64-1.24,3.86-1.86,6.67-1.86,2.25,0,4.15.38,5.72,1.12,1.57.75,2.84,1.73,3.83,2.95.98,1.22,1.69,2.62,2.11,4.21.42,1.59.63,3.25.63,4.99v21.27h-8.43v-17.06c0-.94-.05-1.98-.14-3.12-.09-1.15-.34-2.22-.74-3.23-.4-1.01-1.02-1.85-1.86-2.53-.84-.68-1.99-1.02-3.44-1.02s-2.59.24-3.55.7c-.96.47-1.76,1.1-2.39,1.9-.63.8-1.09,1.71-1.37,2.74-.28,1.03-.42,2.11-.42,3.23v18.4h-8.43v-33.7Z"/>
        <path class="cls-1" d="M112.76,73.55h-.14c-1.22,2.06-2.86,3.56-4.92,4.49-2.06.94-4.28,1.4-6.67,1.4-2.62,0-4.95-.46-6.99-1.37-2.04-.91-3.78-2.16-5.23-3.76-1.45-1.59-2.55-3.46-3.3-5.62-.75-2.15-1.12-4.47-1.12-6.95s.4-4.8,1.19-6.95c.8-2.15,1.91-4.03,3.33-5.62,1.43-1.59,3.15-2.84,5.16-3.76,2.01-.91,4.21-1.37,6.6-1.37,1.59,0,2.99.16,4.21.49,1.22.33,2.29.75,3.23,1.26.94.52,1.73,1.07,2.39,1.65.66.59,1.19,1.16,1.62,1.72h.21v-23.66h8.43v53.08h-8v-5.06ZM92.82,61.76c0,1.31.22,2.57.67,3.79.44,1.22,1.10,2.29,1.97,3.23.87.94,1.91,1.69,3.12,2.25,1.22.56,2.6.84,4.14.84s2.92-.28,4.14-.84c1.22-.56,2.26-1.31,3.12-2.25.87-.94,1.52-2.01,1.97-3.23.44-1.22.67-2.48.67-3.79s-.22-2.57-.67-3.79c-.45-1.22-1.1-2.29-1.97-3.23-.87-.94-1.91-1.69-3.12-2.25-1.22-.56-2.6-.84-4.14-.84s-2.93.28-4.14.84c-1.22.56-2.26,1.31-3.12,2.25-.87.94-1.52,2.01-1.97,3.23-.45,1.22-.67,2.48-.67,3.79Z"/>
        <path class="cls-1" d="M132.84,64.71c.28,2.53,1.26,4.49,2.95,5.9s3.72,2.11,6.11,2.11c2.11,0,3.87-.43,5.3-1.3,1.43-.87,2.68-1.95,3.76-3.26l6.04,4.56c-1.97,2.43-4.17,4.17-6.6,5.2-2.43,1.03-4.99,1.54-7.65,1.54-2.53,0-4.92-.42-7.16-1.26-2.25-.84-4.19-2.04-5.83-3.58-1.64-1.54-2.94-3.41-3.9-5.58-.96-2.18-1.44-4.6-1.44-7.27s.48-5.09,1.44-7.27c.96-2.18,2.26-4.04,3.9-5.58,1.64-1.54,3.58-2.74,5.83-3.58,2.25-.84,4.63-1.26,7.16-1.26,2.34,0,4.48.41,6.42,1.23,1.94.82,3.6,2,4.99,3.55,1.38,1.54,2.46,3.45,3.23,5.72.77,2.27,1.16,4.88,1.16,7.83v2.32h-25.7ZM150.11,58.39c-.05-2.48-.82-4.43-2.32-5.86-1.5-1.43-3.58-2.14-6.25-2.14-2.53,0-4.53.73-6,2.18-1.47,1.45-2.38,3.39-2.7,5.83h17.27Z"/>
        <path class="cls-1" d="M162.19,44.91h8.43v5.34h.14c.94-1.97,2.27-3.49,4-4.56,1.73-1.08,3.72-1.61,5.97-1.61.51,0,1.02.05,1.51.14.49.09.99.21,1.51.35v8.14c-.7-.19-1.39-.34-2.07-.46-.68-.12-1.35-.18-2-.18-1.97,0-3.55.36-4.74,1.09-1.19.73-2.11,1.56-2.74,2.49-.63.94-1.05,1.87-1.26,2.81-.21.94-.32,1.64-.32,2.11v18.05h-8.43v-33.7Z"/>
        <path class="cls-1" d="M182.34,61.76c0-2.67.48-5.09,1.44-7.27.96-2.18,2.26-4.04,3.9-5.58,1.64-1.54,3.58-2.74,5.83-3.58,2.25-.84,4.63-1.26,7.16-1.26s4.92.42,7.16,1.26c2.25.84,4.19,2.04,5.83,3.58,1.64,1.54,2.94,3.41,3.9,5.58.96,2.18,1.44,4.6,1.44,7.27s-.48,5.09-1.44,7.27c-.96,2.18-2.26,4.04-3.9,5.58-1.64,1.54-3.58,2.74-5.83,3.58-2.25.84-4.63,1.26-7.16,1.26s-4.92-.42-7.16-1.26c-2.25-.84-4.19-2.04-5.83-3.58-1.64-1.54-2.94-3.41-3.9-5.58-.96-2.18-1.44-4.6-1.44-7.27ZM190.77,61.76c0,1.31.22,2.57.67,3.79.44,1.22,1.10,2.29,1.97,3.23.87.94,1.91,1.69,3.12,2.25,1.22.56,2.6.84,4.14.84s2.92-.28,4.14-.84c1.22-.56,2.26-1.31,3.12-2.25.87-.94,1.52-2.01,1.97-3.23.44-1.22.67-2.48.67-3.79s-.22-2.57-.67-3.79c-.45-1.22-1.10-2.29-1.97-3.23-.87-.94-1.91-1.69-3.12-2.25-1.22-.56-2.6-.84-4.14-.84s-2.93.28-4.14.84c-1.22.56-2.26,1.31-3.12,2.25-.87.94-1.52,2.01-1.97,3.23-.45,1.22-.67,2.48-.67,3.79Z"/>
      </g>
      <path class="cls-1" d="M231.04,36.22h-6.75c-.37,0-.67-.3-.67-.67V13.71l-21.28,21.28c-.26.26-.69.26-.95,0l-4.67-4.67c-.13-.13-.2-.3-.2-.47s.07-.35.2-.47l21.7-21.7h-21.67c-.37,0-.67-.3-.67-.67V.67c0-.37.3-.67.67-.67h27.96c3.86,0,7,3.14,7,7v28.55c0,.37-.3.67-.67.67ZM224.96,34.89h5.41V7c0-3.12-2.54-5.66-5.66-5.66h-27.29v4.99h22.62c.27,0,.51.16.62.41.1.25.05.54-.15.73l-22.37,22.37,3.73,3.73,21.95-21.95c.19-.19.48-.25.73-.15.25.1.41.35.41.62v22.79Z"/>
      <circle class="cls-1" cx="227.95" cy="75.28" r="3.87"/>
    </g>
  </g>
</svg>
